# xmcd
#
# Track frame offsets:
#	150
#	17207
#	33307
#	41375
#	56890
#	76285
#	89845
#	102107
#	114985
#	128235
#	144102
#	162330
#	184537
#
# Disc length: 2693 seconds
#
# Revision: 1
# Processed by: cddbd v1.5.2PL0 Copyright (c) Steve Scherf et al.
# Submitted via: audiograbber 1.83.01
#
DISCID=a30a830d
DTITLE=Anne Kirkpatrick - 21st Anniversary Concert
DYEAR=1995
DGENRE=Country
TTITLE0=Out Of The Blue
TTITLE1=You Ain't Goin' Nowhere
TTITLE2=One Rose
TTITLE3=I Still Miss Someone
TTITLE4=Sin City
TTITLE5=Wheels
TTITLE6=Feel A Whole Lot Better
TTITLE7=Lights In The Mirror
TTITLE8=Cryin' Time
TTITLE9=Come Back Again
TTITLE10=If You Won't Go Away
TTITLE11=In The Country
TTITLE12=Bury Me Beneath The Willow
EXTD=With guests.  Recorded live, 26th January, 1995.
EXTT0=
EXTT1=
EXTT2=
EXTT3=
EXTT4=
EXTT5=
EXTT6=
EXTT7=
EXTT8=
EXTT9=
EXTT10=
EXTT11=
EXTT12=
PLAYORDER=
